<svg id="Layer_5" enable-background="new 0 0 64 64" height="512" viewBox="0 0 64 64" width="512" xmlns="http://www.w3.org/2000/svg"><g><circle cx="53" cy="38" r="1"/><path d="m52 27h2v8h-2z"/><path d="m53 43c5.514 0 10-4.486 10-10s-4.486-10-10-10c-.93 0-1.827.137-2.682.376-1.786-6.758-6.902-11.905-13.318-13.686v-3.69c0-2.757-2.243-5-5-5s-5 2.243-5 5v3.694c-6.367 1.747-11.511 6.727-13.302 13.306h-12.698v20h12v6c-2.206 0-4 1.794-4 4s1.794 4 4 4h12.08c.488 3.387 3.401 6 6.92 6s6.432-2.613 6.92-6h12.08c2.206 0 4-1.794 4-4s-1.794-4-4-4v-6.202c.646.132 1.315.202 2 .202zm-24-37c0-1.654 1.346-3 3-3s3 1.346 3 3v3.255c-.758-.122-1.525-.215-2.308-.243-1.256-.043-2.489.049-3.692.242zm-5.414 19-6.879 6.879c-1.446 1.446-3.968 1.446-5.414 0l-6.879-6.879zm1.414 1.414v13.172l-6.586-6.586zm-22 0 6.586 6.586-6.586 6.586zm1.414 14.586 6.743-6.743c.859.482 1.831.743 2.843.743s1.984-.261 2.843-.743l6.743 6.743zm27.586 20c-2.414 0-4.434-1.721-4.899-4h9.798c-.465 2.279-2.485 4-4.899 4zm21-8c0 1.103-.897 2-2 2h-38c-1.103 0-2-.897-2-2s.897-2 2-2h2v-8h12v-20h-11.23c2.236-7.284 9.119-12.266 16.851-11.989 7.55.268 13.943 5.616 15.821 13.099-3.226 1.661-5.442 5.019-5.442 8.89 0 4.092 2.473 7.613 6 9.159v8.841h2c1.103 0 2 .897 2 2zm-8-20c0-4.411 3.589-8 8-8s8 3.589 8 8-3.589 8-8 8-8-3.589-8-8z"/><path d="m32.548 13.01c-.183-.007-.366-.01-.548-.01v2c.16 0 .32.003.479.008 4.03.143 7.695 2.17 10.055 5.563l1.642-1.143c-2.724-3.913-6.961-6.252-11.628-6.418z"/><path d="m17 49h10v2h-10z"/><path d="m17 45h10v2h-10z"/></g></svg>