<?xml version="1.0" encoding="utf-8"?>
<!-- Generator: Adobe Illustrator 18.1.1, SVG Export Plug-In . SVG Version: 6.00 Build 0)  -->
<svg version="1.1" id="Слой_1" xmlns="http://www.w3.org/2000/svg" xmlns:xlink="http://www.w3.org/1999/xlink" x="0px" y="0px"
	 viewBox="-41 -43.8 512 512" enable-background="new -41 -43.8 512 512" xml:space="preserve">
<g id="Call_Hospital">
	<path d="M247,60.2v-48c0-22.1-17.9-40-40-40H15c-22.1,0-40,17.9-40,40v400c0,22.1,17.9,40,40,40h192c22.1,0,40-17.9,40-40v-112h-16
		v112c0,13.3-10.7,24-24,24H15c-13.3,0-24-10.7-24-24v-400c0-13.3,10.7-24,24-24h16v8c0,13.3,10.7,24,24,24h112
		c13.3,0,24-10.7,24-24v-8h16c13.3,0,24,10.7,24,24v48H247z M175-3.8c0,4.4-3.6,8-8,8H55c-4.4,0-8-3.6-8-8v-8h128V-3.8z"/>
	<path d="M103,340.2v-192c0-39.7,32.3-72,72-72h128c39.7,0,72,32.3,72,72v64c0,39.7-32.3,72-72,72H180.3c-1.7,0-3.4,0.6-4.8,1.6
		L103,340.2z M175,92.2c-30.9,0-56,25.1-56,56v160l46.9-35.2c4.2-3.1,9.2-4.8,14.4-4.8H303c30.9,0,56-25.1,56-56v-64
		c0-30.9-25.1-56-56-56H175z"/>
	<path d="M7,356.2h208v16H7V356.2z"/>
	<path d="M111,428.2c-13.3,0-24-10.7-24-24s10.7-24,24-24s24,10.7,24,24S124.3,428.2,111,428.2z M111,396.2c-4.4,0-8,3.6-8,8
		s3.6,8,8,8s8-3.6,8-8S115.4,396.2,111,396.2z"/>
</g>
<g>
	<g>
		<g>
			<path d="M439.5,322.8h-38.1v-7.6c0-8.4-6.8-15.2-15.2-15.2h-45.7c-8.4,0-15.2,6.8-15.2,15.2v7.6h-38.1c-8.4,0-15.2,6.8-15.2,15.2
				v22.8c0,8.4,6.8,15.2,15.2,15.2h60.9v-3.8c0-2.1,1.7-3.8,3.8-3.8h22.8c2.1,0,3.8,1.7,3.8,3.8v3.8h60.9c8.4,0,15.2-6.8,15.2-15.2
				V338C454.7,329.6,447.9,322.8,439.5,322.8z M386.2,322.8h-45.7v-7.6h45.7V322.8z"/>
			<path d="M452.6,380.2c-1.3-0.6-2.8-0.5-4,0.4c-2.7,2-5.9,3.1-9.1,3.1h-60.9v11.4c0,2.1-1.7,3.8-3.8,3.8H352
				c-2.1,0-3.8-1.7-3.8-3.8v-11.4h-60.9c-3.3,0-6.4-1.1-9.1-3.1c-1.1-0.9-2.7-1-4-0.4c-1.3,0.6-2.1,2-2.1,3.4V437
				c0,8.4,6.8,15.2,15.2,15.2h152.3c8.4,0,15.2-6.8,15.2-15.2v-53.4C454.7,382.1,453.9,380.8,452.6,380.2z"/>
		</g>
	</g>
</g>
</svg>
