<?xml version="1.0" encoding="utf-8"?>
<!-- Generator: Adobe Illustrator 18.1.1, SVG Export Plug-In . SVG Version: 6.00 Build 0)  -->
<svg version="1.1" id="Слой_1" xmlns="http://www.w3.org/2000/svg" xmlns:xlink="http://www.w3.org/1999/xlink" x="0px" y="0px"
	 viewBox="-57 -27.8 480 480" enable-background="new -57 -27.8 480 480" xml:space="preserve">
<path d="M-25,356.2h208v16H-25V356.2z"/>
<path d="M79,428.2c-13.3,0-24-10.7-24-24s10.7-24,24-24s24,10.7,24,24S92.3,428.2,79,428.2z M79,396.2c-4.4,0-8,3.6-8,8s3.6,8,8,8
	s8-3.6,8-8S83.4,396.2,79,396.2z"/>
<path d="M199,412.2c0,13.3-10.7,24-24,24H-17c-13.3,0-24-10.7-24-24v-400c0-13.3,10.7-24,24-24h16v8c0,13.3,10.7,24,24,24h112
	c13.3,0,24-10.7,24-24v-8h16c13.3,0,24,10.7,24,24v56h16v-56c0-22.1-17.9-40-40-40H-17c-22.1,0-40,17.9-40,40v400
	c0,22.1,17.9,40,40,40h192c22.1,0,40-17.9,40-40v-184h-16V412.2z M15-11.8h128v8c0,4.4-3.6,8-8,8H23c-4.4,0-8-3.6-8-8V-11.8z"/>
<path d="M55,84.2v128h368v-128H55z M407,196.2H71v-96h336V196.2z"/>
<g>
	<g>
		<path d="M114.8,169.8c-2.9,2.9-7.6,2.9-10.5,0L88,153.6c-2.9-2.9-2.9-7.6,0-10.5c2.9-2.9,7.6-2.9,10.5,0l9.7,9.7
			c0.7,0.7,1.9,0.7,2.7,0l26.2-26.2c2.9-2.9,7.6-2.9,10.5,0c1.4,1.4,2.2,3.3,2.2,5.2s-0.8,3.9-2.2,5.2L114.8,169.8z"/>
	</g>
</g>
<g>
	<g>
		<path d="M195.5,169.8c-2.9,2.9-7.6,2.9-10.5,0l-16.3-16.3c-2.9-2.9-2.9-7.6,0-10.5c2.9-2.9,7.6-2.9,10.5,0l9.7,9.7
			c0.7,0.7,1.9,0.7,2.7,0l26.2-26.2c2.9-2.9,7.6-2.9,10.5,0c1.4,1.4,2.2,3.3,2.2,5.2s-0.8,3.9-2.2,5.2L195.5,169.8z"/>
	</g>
</g>
<g>
	<g>
		<path d="M276.2,169.8c-2.9,2.9-7.6,2.9-10.5,0l-16.3-16.3c-2.9-2.9-2.9-7.6,0-10.5c2.9-2.9,7.6-2.9,10.5,0l9.7,9.7
			c0.7,0.7,1.9,0.7,2.7,0l26.2-26.2c2.9-2.9,7.6-2.9,10.5,0c1.4,1.4,2.2,3.3,2.2,5.2s-0.8,3.9-2.2,5.2L276.2,169.8z"/>
	</g>
</g>
<g>
	<g>
		<path d="M357,169.8c-2.9,2.9-7.6,2.9-10.5,0l-16.3-16.3c-2.9-2.9-2.9-7.6,0-10.5c2.9-2.9,7.6-2.9,10.5,0l9.7,9.7
			c0.7,0.7,1.9,0.7,2.7,0l26.2-26.2c2.9-2.9,7.6-2.9,10.5,0c1.4,1.4,2.2,3.3,2.2,5.2s-0.8,3.9-2.2,5.2L357,169.8z"/>
	</g>
</g>
</svg>
