<?xml version="1.0" encoding="utf-8"?>
<!-- Generator: Adobe Illustrator 18.1.1, SVG Export Plug-In . SVG Version: 6.00 Build 0)  -->
<svg version="1.1" id="Capa_1" xmlns="http://www.w3.org/2000/svg" xmlns:xlink="http://www.w3.org/1999/xlink" x="0px" y="0px"
	 viewBox="0 0 595.3 425.2" enable-background="new 0 0 595.3 425.2" xml:space="preserve">
<g>
	<g>
		<polygon points="403.9,141.8 403.9,156 453.5,156 453.5,340.2 141.8,340.2 141.8,156 191.6,156 191.6,141.8 127.6,141.8 
			127.6,354.3 467.7,354.3 467.7,141.8 		"/>
	</g>
</g>
<g>
	<g>
		<path d="M496,368.5V134.7c0-11.7-9.5-21.3-21.3-21.3h-56.7v14.2h56.7c3.9,0,7.1,3.2,7.1,7.1v233.8H326v7.1c0,3.9-3.2,7.1-7.1,7.1
			h-42.5c-3.9,0-7.1-3.2-7.1-7.1v-7.1H113.4V134.7c0-3.9,3.2-7.1,7.1-7.1h56.7v-14.2h-56.7c-11.7,0-21.3,9.5-21.3,21.3v233.8H85.1
			v21.3c0,19.6,15.9,35.4,35.4,35.4h354.3c19.6,0,35.4-15.9,35.4-35.4v-21.3H496z M496,389.8c0,11.7-9.5,21.3-21.3,21.3H120.5
			c-11.7,0-21.3-9.5-21.3-21.3v-7.1h157.1c0.1,0.2,0.2,0.5,0.3,0.7c0.1,0.4,0.3,0.7,0.5,1.1c0.4,0.8,0.8,1.6,1.3,2.3
			c0.2,0.3,0.4,0.7,0.6,1c0.6,0.8,1.3,1.6,2,2.4c0.1,0.1,0.3,0.3,0.4,0.5c0.9,0.9,1.8,1.7,2.8,2.4c0.3,0.2,0.6,0.4,0.9,0.5
			c0.8,0.5,1.6,0.9,2.4,1.3c0.4,0.2,0.8,0.3,1.2,0.5c0.8,0.3,1.7,0.6,2.6,0.8c0.4,0.1,0.8,0.2,1.2,0.3c1.3,0.3,2.6,0.4,3.9,0.4h42.5
			c1.3,0,2.6-0.1,3.9-0.4c0.4-0.1,0.8-0.2,1.2-0.3c0.9-0.2,1.7-0.5,2.6-0.8c0.4-0.2,0.8-0.3,1.2-0.5c0.8-0.4,1.6-0.8,2.4-1.3
			c0.3-0.2,0.6-0.3,0.9-0.5c1-0.7,2-1.5,2.8-2.4c0.1-0.1,0.3-0.3,0.4-0.5c0.7-0.7,1.4-1.5,2-2.4c0.2-0.3,0.4-0.7,0.6-1
			c0.5-0.8,0.9-1.5,1.3-2.3c0.2-0.4,0.3-0.7,0.5-1.1c0.1-0.2,0.2-0.5,0.3-0.7H496L496,389.8L496,389.8z"/>
	</g>
</g>
<g>
	<g>
		<path d="M297.6,89.5c-24.1,0-43.7,19.6-43.7,43.7c0,24.1,19.6,43.7,43.7,43.7c24.1,0,43.7-19.6,43.7-43.7S321.8,89.5,297.6,89.5z
			 M297.6,166c-18.1,0-32.8-14.7-32.8-32.8c0-18.1,14.7-32.7,32.8-32.8c18.1,0,32.8,14.7,32.8,32.8S315.7,166,297.6,166z"/>
	</g>
</g>
<g>
	<g>
		<path d="M385,111.3h-14.2c-1.5-5-3.5-9.9-6-14.5l10-10c2.1-2.1,2.1-5.6,0-7.7l-23.2-23.2c-2.1-2.1-5.6-2.1-7.7,0l-10,10
			c-4.6-2.5-9.5-4.5-14.5-6V45.8c0-3-2.4-5.5-5.5-5.5h-32.8c-3,0-5.5,2.4-5.5,5.5V60c-5,1.5-9.9,3.5-14.5,6l-10-10
			c-2.1-2.1-5.6-2.1-7.7,0l-23.2,23.2c-2.1,2.1-2.1,5.6,0,7.7l10,10c-2.5,4.6-4.5,9.5-6,14.5h-14.2c-3,0-5.5,2.4-5.5,5.5v32.8
			c0,3,2.4,5.5,5.5,5.5h14.2c1.5,5,3.5,9.9,6,14.5l-10,10c-2.1,2.1-2.1,5.6,0,7.7l23.2,23.2c2.1,2.1,5.6,2.1,7.7,0l10-10
			c4.6,2.5,9.5,4.5,14.5,6v14.2c0,3,2.4,5.5,5.5,5.5H314c3,0,5.5-2.4,5.5-5.5v-14.2c5-1.5,9.9-3.5,14.5-6l10,10
			c2.1,2.1,5.6,2.1,7.7,0l23.2-23.2c2.1-2.1,2.1-5.6,0-7.7l-10-10c2.5-4.6,4.5-9.5,6-14.5H385c3,0,5.5-2.4,5.5-5.5v-32.8
			C390.5,113.8,388,111.3,385,111.3z M379.6,144.1h-12.9c-2.5,0-4.7,1.7-5.3,4.2c-1.6,6.8-4.3,13.3-8,19.2c-1.3,2.2-1,4.9,0.8,6.7
			l9.1,9.1l-15.4,15.4l-9.1-9.1c-1.8-1.8-4.6-2.1-6.7-0.8c-5.9,3.7-12.4,6.4-19.2,8c-2.5,0.6-4.2,2.8-4.2,5.3v12.9h-21.8v-12.9
			c0-2.5-1.7-4.7-4.2-5.3c-6.8-1.6-13.3-4.3-19.2-8c-2.2-1.3-4.9-1-6.7,0.8l-9.1,9.1L232,183.4l9.1-9.1c1.8-1.8,2.1-4.6,0.8-6.7
			c-3.7-5.9-6.4-12.4-8-19.2c-0.6-2.5-2.8-4.2-5.3-4.2h-12.9v-21.8h12.9c2.5,0,4.7-1.7,5.3-4.2c1.6-6.8,4.3-13.3,8-19.2
			c1.3-2.2,1-4.9-0.8-6.7L232,83l15.4-15.4l9.1,9.1c1.8,1.8,4.6,2.1,6.7,0.8c5.9-3.7,12.4-6.4,19.2-8c2.5-0.6,4.2-2.8,4.2-5.3V51.3
			h21.8v12.9c0,2.5,1.7,4.7,4.2,5.3c6.8,1.6,13.3,4.3,19.2,8c2.2,1.3,4.9,1,6.7-0.8l9.1-9.1L363.3,83l-9.1,9.1
			c-1.8,1.8-2.1,4.6-0.8,6.7c3.7,5.9,6.4,12.4,8,19.2c0.6,2.5,2.8,4.2,5.3,4.2h12.9V144.1z"/>
	</g>
</g>
</svg>
