<?xml version="1.0" encoding="iso-8859-1"?>
<!-- Generator: Adobe Illustrator 19.0.0, SVG Export Plug-In . SVG Version: 6.00 Build 0)  -->
<svg version="1.1" id="Capa_1" xmlns="http://www.w3.org/2000/svg" xmlns:xlink="http://www.w3.org/1999/xlink" x="0px" y="0px"
	 viewBox="0 0 480.084 480.084" style="enable-background:new 0 0 480.084 480.084;" xml:space="preserve">
<g>
	<g>
		<polygon points="226.386,170.428 208.042,188.772 208.042,104.084 192.042,104.084 192.042,188.772 173.698,170.428 
			162.386,181.74 200.042,219.396 237.698,181.74 		"/>
	</g>
</g>
<g>
	<g>
		<polygon points="272.042,92.772 234.386,130.428 245.698,141.74 264.042,123.396 264.042,208.084 280.042,208.084 
			280.042,123.396 298.386,141.74 309.698,130.428 		"/>
	</g>
</g>
<g>
	<g>
		<polygon points="360.042,160.084 360.042,176.084 416.042,176.084 416.042,384.084 64.042,384.084 64.042,176.084 
			128.042,176.084 128.042,160.084 48.042,160.084 48.042,400.084 432.042,400.084 432.042,160.084 		"/>
	</g>
</g>
<g>
	<g>
		<path d="M464.042,416.084v-264c0-13.255-10.745-24-24-24h-64v16h64c4.418,0,8,3.582,8,8v264h-176v8c0,4.418-3.582,8-8,8h-48
			c-4.418,0-8-3.582-8-8v-8h-176v-264c0-4.418,3.582-8,8-8h64v-16h-64c-13.255,0-24,10.745-24,24v264h-16v24
			c0.026,22.08,17.92,39.974,40,40h400c22.08-0.026,39.974-17.92,40-40v-24H464.042z M464.042,440.084c0,13.255-10.745,24-24,24
			h-400c-13.255,0-24-10.745-24-24v-8H193.41c0.096,0.28,0.248,0.528,0.36,0.8c0.168,0.424,0.352,0.8,0.544,1.24
			c0.423,0.906,0.902,1.785,1.432,2.632c0.24,0.376,0.464,0.76,0.728,1.128c0.677,0.954,1.423,1.858,2.232,2.704
			c0.168,0.168,0.296,0.36,0.464,0.528c0.991,0.975,2.061,1.866,3.2,2.664c0.32,0.216,0.664,0.4,1,0.608
			c0.871,0.549,1.777,1.04,2.712,1.472c0.44,0.2,0.88,0.376,1.328,0.552c0.944,0.359,1.908,0.661,2.888,0.904
			c0.44,0.104,0.864,0.232,1.312,0.312c1.46,0.292,2.944,0.445,4.432,0.456h48c1.48-0.01,2.956-0.16,4.408-0.448
			c0.448-0.08,0.872-0.208,1.312-0.32c0.981-0.237,1.945-0.536,2.888-0.896c0.448-0.176,0.888-0.352,1.328-0.552
			c0.935-0.432,1.841-0.924,2.712-1.472c0.336-0.208,0.68-0.392,1-0.608c1.139-0.798,2.209-1.689,3.2-2.664
			c0.168-0.168,0.296-0.36,0.464-0.528c0.809-0.846,1.555-1.75,2.232-2.704c0.264-0.368,0.488-0.752,0.728-1.128
			c0.528-0.848,1.003-1.727,1.424-2.632c0.192-0.416,0.384-0.8,0.56-1.248c0.104-0.272,0.256-0.52,0.352-0.8h177.392V440.084z"/>
	</g>
</g>
<g>
	<g>
		<path d="M312.042,48.084c-3.925-0.002-7.839,0.402-11.68,1.208C287.81,11.56,247.047-8.851,209.315,3.701
			c-26.668,8.872-45.736,32.449-48.833,60.383h-0.44c-26.51,0-48,21.49-48,48s21.49,48,48,48c4.418,0,8-3.582,8-8s-3.582-8-8-8
			c-17.673,0-32-14.327-32-32s14.327-32,32-32c2.109-0.02,4.215,0.186,6.28,0.616c4.315,0.95,8.583-1.778,9.533-6.093
			c0.125-0.566,0.187-1.144,0.187-1.723v-0.8c-0.009-30.928,25.055-56.008,55.983-56.017c26.624-0.008,49.572,18.73,54.889,44.817
			c0.47,2.309,1.933,4.293,4,5.424c2.065,1.143,4.532,1.304,6.728,0.44c20.62-7.927,43.762,2.362,51.689,22.983
			s-2.362,43.762-22.983,51.689c-4.566,1.755-9.415,2.658-14.307,2.664c-4.418,0-8,3.582-8,8s3.582,8,8,8c30.928,0,56-25.072,56-56
			C368.042,73.156,342.97,48.084,312.042,48.084z"/>
	</g>
</g>
<g>
</g>
<g>
</g>
<g>
</g>
<g>
</g>
<g>
</g>
<g>
</g>
<g>
</g>
<g>
</g>
<g>
</g>
<g>
</g>
<g>
</g>
<g>
</g>
<g>
</g>
<g>
</g>
<g>
</g>
</svg>
