<?xml version="1.0" encoding="utf-8"?>
<!-- Generator: Adobe Illustrator 18.1.1, SVG Export Plug-In . SVG Version: 6.00 Build 0)  -->
<svg version="1.1" id="Layer_5" xmlns="http://www.w3.org/2000/svg" xmlns:xlink="http://www.w3.org/1999/xlink" x="0px" y="0px"
	 viewBox="128 -235.5 512 512" enable-background="new 128 -235.5 512 512" xml:space="preserve">
<circle cx="552" cy="68.5" r="8"/>
<path d="M544-19.5h16v64h-16V-19.5z"/>
<path d="M232,108.5v48c-17.6,0-32,14.4-32,32s14.4,32,32,32h96.6c3.9,27.1,27.2,48,55.4,48s51.5-20.9,55.4-48H536
	c17.6,0,32-14.4,32-32s-14.4-32-32-32v-49.6c5.2,1.1,10.5,1.6,16,1.6c44.1,0,80-35.9,80-80s-35.9-80-80-80c-7.4,0-14.6,1.1-21.5,3
	C516.3-102.5,475.3-143.7,424-158v-29.5c0-22.1-17.9-40-40-40s-40,17.9-40,40v29.6c-50.9,14-92.1,53.8-106.4,106.4 M360-187.5
	c0-13.2,10.8-24,24-24s24,10.8,24,24v26c-6.1-1-12.2-1.7-18.5-1.9c-10-0.3-19.9,0.4-29.5,1.9V-187.5z M384,252.5
	c-19.3,0-35.5-13.8-39.2-32h78.4C419.5,238.8,403.3,252.5,384,252.5z M254.2-51.5c17.9-58.3,73-98.1,134.8-95.9
	c60.4,2.1,111.5,44.9,126.6,104.8C489.7-29.3,472-2.4,472,28.5c0,32.7,19.8,60.9,48,73.3v70.7h16c8.8,0,16,7.2,16,16s-7.2,16-16,16
	H232c-8.8,0-16-7.2-16-16s7.2-16,16-16h16v-64 M488,28.5c0-35.3,28.7-64,64-64s64,28.7,64,64s-28.7,64-64,64S488,63.8,488,28.5z"/>
<path d="M388.4-131.4c-1.5-0.1-2.9-0.1-4.4-0.1v16c1.3,0,2.6,0,3.8,0.1c32.2,1.1,61.6,17.4,80.4,44.5l13.1-9.1
	C459.6-111.4,425.7-130.1,388.4-131.4L388.4-131.4z"/>
<path d="M264,156.5h80v16h-80V156.5z"/>
<path d="M264,124.5h80v16h-80V124.5z"/>
</svg>
